<?xml version="1.0" encoding="UTF-8"?>
<svg id="Calque_1" data-name="Calque 1" xmlns="http://www.w3.org/2000/svg" viewBox="0 0 1080 345.61">
  <defs>
    <style>
      .cls-1 {
        fill: #fff;
      }

      .cls-2 {
        fill: #61e885;
      }
    </style>
  </defs>
  <g>
    <path class="cls-1" d="M478.98,339.98c-18.22,0-33.61-2.09-46.18-6.29-12.57-4.18-21.95-12.38-28.15-24.59-6.2-12.2-9.29-29.79-9.29-52.74v-120.37h-55.38v-68.02h55.38V0h67.85v67.97h68v68.02h-68v111.62c0,9.11.91,15.94,2.73,20.5,1.82,4.56,5.28,7.57,10.38,9.02,5.1,1.46,12.02,2.19,20.77,2.19h35.99v60.67h-54.11Z"/>
    <path class="cls-1" d="M673.75,345.61c-35.71,0-65.13-8.38-88.27-25.14-23.14-16.75-36.17-39.16-39.08-67.22h72.69c2.55,11.3,9.02,20.41,19.41,27.33,10.39,6.92,23.04,10.38,37.98,10.38s27.6-2.91,35.8-8.74c8.2-5.83,12.3-12.93,12.3-21.32,0-6.92-2.92-12.38-8.74-16.4-5.83-4-16.22-6.92-31.16-8.75-5.47-.72-12.57-1.82-21.31-3.28-8.75-1.45-15.85-2.73-21.32-3.83-14.94-2.91-28.61-7.65-40.99-14.21-12.39-6.56-22.32-15.3-29.79-26.23-7.47-10.93-11.2-24.59-11.2-40.99,0-24.05,9.02-44.35,27.05-60.94,18.04-16.57,44.36-24.87,78.98-24.87s62.12,7.65,82.53,22.95c20.4,15.3,31.88,36.81,34.43,64.49h-68.87c-1.09-10.93-6.28-19.13-15.58-24.6-9.29-5.46-19.95-8.2-31.97-8.2-14.21,0-25.14,2.64-32.79,7.92-7.65,5.29-11.48,11.75-11.48,19.4,0,13.12,12.02,21.86,36.07,26.24,3.64.37,8.28,1.01,13.93,1.91,5.65.91,11.56,1.83,17.77,2.73,6.19.91,11.11,1.73,14.76,2.46,10.57,1.46,20.95,3.83,31.15,7.1,10.2,3.28,19.4,7.75,27.6,13.39,8.2,5.65,14.76,13.21,19.68,22.68,4.92,9.48,7.38,21.14,7.38,34.98,0,17.85-4.56,33.61-13.66,47.27-9.11,13.66-22.32,24.32-39.62,31.97-17.31,7.65-38.53,11.48-63.67,11.48"/>
    <path class="cls-1" d="M947.19,345.61c-27.69,0-52.19-6.1-73.51-18.31-21.31-12.2-38.08-28.97-50.28-50.28-12.21-21.32-18.31-45.81-18.31-73.51s6.1-52.2,18.31-73.51c12.2-21.31,28.97-38.07,50.28-50.28,21.32-12.2,45.82-18.31,73.51-18.31,34.61,0,63.76,9.02,87.45,27.05,23.68,18.04,38.8,42.9,45.36,74.6h-74.87c-3.28-12.38-10.21-22.31-20.77-29.79-10.57-7.47-23.15-11.2-37.71-11.2-12.39,0-23.87,3.28-34.43,9.84-10.57,6.56-18.95,15.85-25.14,27.88-6.2,12.02-9.29,26.6-9.29,43.72s3.09,31.34,9.29,43.72c6.19,12.39,14.57,21.78,25.14,28.15,10.57,6.38,22.04,9.56,34.43,9.56,14.57,0,27.14-3.55,37.71-10.66,10.56-7.11,17.49-17.22,20.77-30.33h74.87c-6.2,30.61-21.23,55.2-45.09,73.79-23.87,18.58-53.11,27.87-87.72,27.87"/>
  </g>
  <polygon class="cls-2" points="203.99 67.99 135.99 67.99 68 67.99 0 67.99 0 135.99 68 135.99 135.99 135.99 135.99 203.98 203.99 203.98 203.99 271.98 203.99 339.98 271.98 339.98 271.98 271.98 271.98 203.98 271.98 135.99 271.98 67.99 203.99 67.99"/>
  <rect class="cls-2" x="68" y="203.99" width="68" height="68"/>
  <rect class="cls-2" y="271.98" width="68" height="68"/>
</svg>